<svg xmlns="http://www.w3.org/2000/svg" xmlns:xlink="http://www.w3.org/1999/xlink" width="600" zoomAndPan="magnify" viewBox="0 0 450 30.000001" height="40" preserveAspectRatio="xMidYMid meet" version="1.0"><defs><clipPath id="5b67a6bda3"><path d="M 320 8 L 371 8 L 371 23.953125 L 320 23.953125 Z M 320 8 " clip-rule="nonzero"/></clipPath><clipPath id="965bcc6a98"><path d="M 24 5.082031 L 70 5.082031 L 70 20 L 24 20 Z M 24 5.082031 " clip-rule="nonzero"/></clipPath><clipPath id="fcef63a3d5"><path d="M 399 8 L 442.742188 8 L 442.742188 23.953125 L 399 23.953125 Z M 399 8 " clip-rule="nonzero"/></clipPath><clipPath id="4751870fd1"><path d="M 7.257812 6 L 51 6 L 51 22 L 7.257812 22 Z M 7.257812 6 " clip-rule="nonzero"/></clipPath><clipPath id="8cea4cdc13"><path d="M 206.378906 7 L 216 7 L 216 11 L 206.378906 11 Z M 206.378906 7 " clip-rule="nonzero"/></clipPath><clipPath id="3df1af9b7b"><path d="M 216 10 L 223.074219 10 L 223.074219 14.515625 L 216 14.515625 Z M 216 10 " clip-rule="nonzero"/></clipPath><clipPath id="e4cd4d653e"><path d="M 217 2.902344 L 220 2.902344 L 220 9 L 217 9 Z M 217 2.902344 " clip-rule="nonzero"/></clipPath><clipPath id="64fcb092ce"><path d="M 227.070312 2.902344 L 243.765625 2.902344 L 243.765625 14.515625 L 227.070312 14.515625 Z M 227.070312 2.902344 " clip-rule="nonzero"/></clipPath><clipPath id="188b3a7c4a"><path d="M 7 5 L 16.617188 5 L 16.617188 9 L 7 9 Z M 7 5 " clip-rule="nonzero"/></clipPath><clipPath id="b694dc74ec"><path d="M 0.0703125 8 L 7 8 L 7 12.515625 L 0.0703125 12.515625 Z M 0.0703125 8 " clip-rule="nonzero"/></clipPath><clipPath id="42c4e2ac52"><path d="M 3 0.902344 L 6 0.902344 L 6 7 L 3 7 Z M 3 0.902344 " clip-rule="nonzero"/></clipPath><clipPath id="acb98197ae"><rect x="0" width="17" y="0" height="13"/></clipPath><clipPath id="06a4a985e3"><path d="M 213.894531 20.546875 L 236.394531 20.546875 L 236.394531 26.355469 L 213.894531 26.355469 Z M 213.894531 20.546875 " clip-rule="nonzero"/></clipPath></defs><path fill="#000000" d="M 224.628906 17.601562 L 290.339844 17.871094 C 290.949219 17.871094 291.441406 18.367188 291.4375 18.980469 C 291.433594 19.589844 290.9375 20.082031 290.328125 20.078125 L 224.617188 19.8125 C 224.007812 19.808594 223.515625 19.3125 223.519531 18.703125 C 223.519531 18.09375 224.019531 17.601562 224.628906 17.601562 Z M 224.628906 17.601562 " fill-opacity="1" fill-rule="nonzero"/><path fill="#000000" d="M 225.324219 17.605469 L 159.617188 17.335938 C 159.003906 17.332031 158.507812 17.824219 158.507812 18.4375 C 158.503906 19.046875 158.996094 19.542969 159.605469 19.542969 L 225.316406 19.8125 C 225.925781 19.816406 226.421875 19.324219 226.425781 18.714844 C 226.429688 18.105469 225.9375 17.609375 225.324219 17.605469 Z M 225.324219 17.605469 " fill-opacity="1" fill-rule="nonzero"/><path fill="#000000" d="M 298.035156 19.894531 L 298.054688 19.902344 C 300.53125 20.492188 304.027344 20.925781 308.539062 21.207031 C 312.058594 21.40625 315.3125 21.269531 318.292969 20.796875 C 320.328125 20.5 322.429688 19.777344 324.589844 18.632812 C 325.273438 18.273438 325.996094 17.828125 326.761719 17.289062 C 330.308594 14.214844 332.269531 12.601562 332.640625 12.449219 C 334.148438 11.527344 335.265625 10.992188 335.988281 10.847656 C 337.636719 10.371094 339.550781 10.09375 341.738281 10.019531 L 344.09375 9.96875 C 347.378906 10.019531 349.90625 10.023438 351.679688 9.976562 C 351.867188 9.980469 352.132812 10.003906 352.472656 10.054688 C 345.359375 7.925781 339.675781 7.253906 335.425781 8.039062 C 334.320312 8.167969 332.84375 8.707031 331.003906 9.652344 C 330.300781 10.03125 329.558594 10.5 328.773438 11.054688 C 326.464844 12.785156 324.367188 14.289062 322.472656 15.5625 C 320.894531 16.484375 319.554688 17.089844 318.460938 17.371094 C 316.472656 17.925781 314.652344 18.292969 313.003906 18.480469 C 312.574219 18.546875 311.40625 18.667969 309.5 18.84375 L 300.132812 19.476562 C 299.417969 19.542969 298.785156 19.617188 298.234375 19.699219 C 298.164062 19.691406 298.097656 19.753906 298.035156 19.894531 " fill-opacity="1" fill-rule="nonzero"/><path fill="#000000" d="M 151.902344 19.300781 L 151.882812 19.304688 C 149.402344 19.875 145.902344 20.28125 141.386719 20.523438 C 137.863281 20.695312 134.617188 20.535156 131.640625 20.035156 C 129.605469 19.722656 127.511719 18.980469 125.355469 17.820312 C 124.679688 17.453125 123.957031 17.003906 123.195312 16.460938 C 119.675781 13.355469 117.730469 11.726562 117.359375 11.570312 C 115.855469 10.632812 114.746094 10.089844 114.023438 9.945312 C 112.382812 9.453125 110.46875 9.160156 108.28125 9.066406 L 105.925781 8.996094 C 102.640625 9.023438 100.113281 9.003906 98.339844 8.945312 C 98.152344 8.945312 97.886719 8.96875 97.546875 9.015625 C 104.675781 6.941406 110.367188 6.316406 114.609375 7.136719 C 115.714844 7.277344 117.183594 7.824219 119.019531 8.785156 C 119.71875 9.171875 120.457031 9.644531 121.238281 10.207031 C 123.53125 11.957031 125.617188 13.476562 127.5 14.769531 C 129.070312 15.703125 130.40625 16.316406 131.5 16.609375 C 133.484375 17.179688 135.296875 17.5625 136.945312 17.761719 C 137.375 17.832031 138.539062 17.964844 140.445312 18.152344 L 149.808594 18.863281 C 150.523438 18.933594 151.152344 19.015625 151.703125 19.101562 C 151.777344 19.09375 151.84375 19.160156 151.902344 19.300781 " fill-opacity="1" fill-rule="nonzero"/><g clip-path="url(#5b67a6bda3)"><path fill="#000000" d="M 320.71875 19.941406 L 320.742188 19.953125 C 323.230469 21.140625 325.859375 22.066406 328.636719 22.730469 C 331.40625 23.335938 333.625 23.488281 335.28125 23.191406 C 336.957031 22.972656 338.523438 22.300781 339.976562 21.179688 C 340.621094 20.683594 341.285156 20.085938 341.964844 19.382812 L 346.503906 14.476562 L 347.398438 13.632812 C 347.976562 13.039062 349.039062 12.445312 350.585938 11.84375 C 352.175781 11.316406 354.367188 11.082031 357.152344 11.128906 C 358.835938 11.183594 360.050781 11.246094 360.796875 11.320312 C 365.164062 11.738281 368.082031 11.972656 369.550781 12.015625 C 369.875 12.046875 370.183594 12.097656 370.480469 12.160156 C 370.445312 12.214844 369.074219 11.742188 366.371094 10.75 C 365.542969 10.484375 364.714844 10.234375 363.882812 10 C 362.042969 9.5 360.378906 9.125 358.890625 8.871094 C 355.617188 8.3125 352.898438 8.210938 350.730469 8.570312 C 348.71875 8.792969 346.621094 9.742188 344.429688 11.425781 L 342.925781 12.773438 C 340.15625 16.316406 338.609375 18.199219 338.285156 18.425781 C 336.957031 19.585938 336.097656 20.175781 335.703125 20.199219 C 334.535156 20.675781 332.929688 20.898438 330.890625 20.863281 C 330.242188 20.871094 329.203125 20.792969 327.78125 20.636719 L 321.476562 19.835938 C 320.988281 19.757812 320.734375 19.792969 320.71875 19.941406 " fill-opacity="1" fill-rule="nonzero"/></g><path fill="#000000" d="M 129.21875 19.160156 L 129.195312 19.171875 C 126.699219 20.335938 124.058594 21.242188 121.28125 21.886719 C 118.503906 22.46875 116.285156 22.601562 114.628906 22.292969 C 112.957031 22.058594 111.398438 21.375 109.949219 20.238281 C 109.308594 19.738281 108.652344 19.132812 107.976562 18.425781 L 103.480469 13.484375 L 102.589844 12.632812 C 102.019531 12.035156 100.960938 11.433594 99.421875 10.816406 C 97.832031 10.28125 95.644531 10.023438 92.855469 10.050781 C 91.171875 10.089844 89.957031 10.144531 89.210938 10.210938 C 84.84375 10.59375 81.921875 10.804688 80.453125 10.835938 C 80.128906 10.863281 79.820312 10.910156 79.523438 10.972656 C 79.558594 11.027344 80.929688 10.566406 83.644531 9.59375 C 84.472656 9.339844 85.304688 9.09375 86.136719 8.867188 C 87.980469 8.382812 89.648438 8.019531 91.140625 7.777344 C 94.417969 7.246094 97.136719 7.167969 99.300781 7.542969 C 101.308594 7.78125 103.402344 8.75 105.578125 10.449219 L 107.070312 11.808594 C 109.8125 15.375 111.34375 17.273438 111.664062 17.5 C 112.984375 18.671875 113.839844 19.269531 114.234375 19.292969 C 115.398438 19.78125 117 20.015625 119.042969 20 C 119.6875 20.007812 120.726562 19.941406 122.152344 19.800781 L 128.464844 19.046875 C 128.953125 18.976562 129.203125 19.011719 129.21875 19.160156 " fill-opacity="1" fill-rule="nonzero"/><path fill="#000000" d="M 296.0625 19.371094 L 296.050781 19.550781 C 295.992188 19.910156 295.824219 20.195312 295.546875 20.410156 C 295.269531 20.625 294.941406 20.710938 294.566406 20.667969 C 294.207031 20.609375 293.917969 20.441406 293.707031 20.164062 C 293.636719 20.074219 293.582031 19.976562 293.535156 19.871094 L 293.480469 19.710938 C 293.449219 19.597656 293.433594 19.480469 293.433594 19.359375 C 293.445312 18.988281 293.574219 18.679688 293.824219 18.433594 C 294.070312 18.1875 294.382812 18.0625 294.753906 18.054688 C 295.125 18.0625 295.433594 18.191406 295.679688 18.441406 C 295.925781 18.691406 296.054688 19 296.0625 19.371094 " fill-opacity="1" fill-rule="nonzero"/><path fill="#000000" d="M 153.878906 18.792969 L 153.890625 18.96875 C 153.945312 19.328125 154.109375 19.617188 154.386719 19.832031 C 154.664062 20.050781 154.988281 20.136719 155.367188 20.097656 C 155.726562 20.042969 156.011719 19.878906 156.230469 19.605469 C 156.300781 19.515625 156.355469 19.417969 156.402344 19.3125 L 156.457031 19.152344 C 156.488281 19.039062 156.503906 18.921875 156.507812 18.800781 C 156.5 18.429688 156.371094 18.121094 156.125 17.871094 C 155.878906 17.625 155.570312 17.492188 155.199219 17.484375 C 154.824219 17.492188 154.515625 17.617188 154.269531 17.863281 C 154.019531 18.109375 153.890625 18.417969 153.878906 18.792969 " fill-opacity="1" fill-rule="nonzero"/><path fill="#000000" d="M 378.316406 12.699219 L 378.292969 13.039062 C 378.195312 13.71875 377.90625 14.261719 377.429688 14.664062 C 376.949219 15.070312 376.386719 15.234375 375.738281 15.152344 C 375.121094 15.042969 374.628906 14.726562 374.261719 14.203125 C 374.144531 14.035156 374.046875 13.851562 373.96875 13.652344 L 373.875 13.34375 C 373.824219 13.132812 373.796875 12.910156 373.796875 12.683594 C 373.816406 11.976562 374.039062 11.394531 374.464844 10.925781 C 374.894531 10.460938 375.425781 10.222656 376.066406 10.207031 C 376.707031 10.226562 377.238281 10.472656 377.660156 10.941406 C 378.085938 11.410156 378.304688 11.996094 378.316406 12.699219 " fill-opacity="1" fill-rule="nonzero"/><path fill="#000000" d="M 71.683594 11.449219 L 71.703125 11.785156 C 71.796875 12.464844 72.082031 13.011719 72.554688 13.421875 C 73.027344 13.828125 73.589844 13.996094 74.238281 13.921875 C 74.855469 13.816406 75.351562 13.503906 75.726562 12.984375 C 75.84375 12.816406 75.941406 12.632812 76.019531 12.433594 L 76.117188 12.128906 C 76.171875 11.917969 76.199219 11.695312 76.203125 11.46875 C 76.1875 10.761719 75.96875 10.175781 75.546875 9.707031 C 75.125 9.238281 74.59375 8.992188 73.953125 8.972656 C 73.3125 8.988281 72.777344 9.226562 72.351562 9.695312 C 71.925781 10.160156 71.703125 10.746094 71.683594 11.449219 " fill-opacity="1" fill-rule="nonzero"/><path fill="#000000" d="M 380.246094 15.464844 L 380.28125 15.488281 C 384.121094 17.417969 387.976562 18.878906 391.847656 19.863281 C 395.347656 20.695312 398.113281 20.964844 400.140625 20.675781 C 402.230469 20.347656 403.902344 19.75 405.148438 18.882812 C 405.917969 18.351562 406.863281 17.503906 407.988281 16.332031 C 408.292969 16.054688 409.46875 14.644531 411.523438 12.097656 C 411.964844 11.566406 412.378906 11.121094 412.761719 10.765625 C 413.339844 10.175781 414.011719 9.714844 414.785156 9.386719 C 415.898438 8.941406 417.183594 8.785156 418.640625 8.910156 C 419.210938 8.917969 420.328125 9.078125 421.996094 9.382812 C 424.085938 9.75 425.148438 9.984375 425.175781 10.09375 L 424.472656 9.800781 C 423.382812 9.175781 422.390625 8.664062 421.492188 8.265625 C 420.605469 7.878906 419.695312 7.566406 418.753906 7.324219 C 416.90625 6.90625 415.332031 6.894531 414.023438 7.292969 C 413.042969 7.523438 411.945312 8.125 410.726562 9.101562 C 410.554688 9.128906 408.945312 10.699219 405.902344 13.804688 C 405.269531 14.394531 404.628906 14.925781 403.976562 15.390625 C 402.390625 16.417969 401.378906 16.976562 400.941406 17.074219 C 400.296875 17.316406 399.535156 17.488281 398.652344 17.597656 C 396.632812 17.78125 394.738281 17.746094 392.96875 17.484375 C 392.234375 17.417969 390.890625 17.207031 388.941406 16.855469 C 384.453125 15.976562 382.074219 15.523438 381.808594 15.5 L 380.628906 15.351562 C 380.5 15.339844 380.375 15.375 380.246094 15.464844 " fill-opacity="1" fill-rule="nonzero"/><g clip-path="url(#965bcc6a98)"><path fill="#000000" d="M 69.730469 14.199219 L 69.695312 14.21875 C 65.839844 16.121094 61.972656 17.546875 58.09375 18.503906 C 54.585938 19.304688 51.820312 19.550781 49.796875 19.246094 C 47.707031 18.898438 46.042969 18.289062 44.800781 17.414062 C 44.035156 16.875 43.097656 16.015625 41.980469 14.835938 C 41.679688 14.558594 40.511719 13.136719 38.484375 10.574219 C 38.042969 10.039062 37.632812 9.589844 37.253906 9.234375 C 36.683594 8.636719 36.011719 8.171875 35.242188 7.835938 C 34.132812 7.382812 32.847656 7.214844 31.390625 7.328125 C 30.820312 7.332031 29.703125 7.480469 28.03125 7.773438 C 25.9375 8.121094 24.875 8.351562 24.84375 8.457031 L 25.550781 8.171875 C 26.644531 7.554688 27.644531 7.050781 28.542969 6.660156 C 29.433594 6.28125 30.347656 5.976562 31.289062 5.742188 C 33.140625 5.335938 34.71875 5.339844 36.019531 5.75 C 37 5.988281 38.09375 6.597656 39.300781 7.585938 C 39.472656 7.613281 41.070312 9.195312 44.089844 12.328125 C 44.714844 12.921875 45.351562 13.457031 46 13.929688 C 47.578125 14.96875 48.585938 15.539062 49.023438 15.636719 C 49.667969 15.882812 50.425781 16.0625 51.304688 16.179688 C 53.324219 16.382812 55.21875 16.359375 56.988281 16.113281 C 57.726562 16.050781 59.074219 15.851562 61.023438 15.515625 C 65.519531 14.675781 67.898438 14.242188 68.167969 14.222656 L 69.351562 14.082031 C 69.476562 14.070312 69.601562 14.109375 69.730469 14.199219 " fill-opacity="1" fill-rule="nonzero"/></g><g clip-path="url(#fcef63a3d5)"><path fill="#000000" d="M 399.464844 20.59375 L 399.484375 20.605469 C 404.8125 22.816406 409.316406 23.589844 413 22.917969 C 414.664062 22.589844 416.203125 21.785156 417.613281 20.503906 C 418.304688 19.878906 418.949219 19.195312 419.554688 18.457031 C 421.023438 16.683594 422.078125 15.3125 422.71875 14.347656 C 423.160156 13.78125 423.578125 13.296875 423.96875 12.902344 C 424.464844 12.3125 425.328125 11.730469 426.5625 11.15625 C 428.144531 10.605469 429.925781 10.382812 431.914062 10.488281 C 432.339844 10.484375 433.316406 10.554688 434.84375 10.695312 C 438.953125 11.195312 441.308594 11.460938 441.90625 11.492188 C 442.152344 11.527344 442.429688 11.589844 442.742188 11.675781 C 442.496094 11.609375 442.160156 11.496094 441.746094 11.335938 C 440.609375 10.835938 439.71875 10.46875 439.070312 10.222656 L 437.378906 9.625 C 436.164062 9.203125 434.78125 8.828125 433.226562 8.496094 C 430.578125 7.941406 428.265625 7.867188 426.285156 8.277344 C 424.304688 8.746094 422.609375 9.679688 421.1875 11.074219 C 420.53125 11.699219 419.800781 12.492188 419 13.453125 C 417.398438 15.863281 416.253906 17.445312 415.5625 18.203125 C 414.445312 19.332031 413.640625 19.953125 413.148438 20.066406 C 411.925781 20.621094 410.398438 20.917969 408.558594 20.957031 C 408.003906 20.976562 407.101562 20.957031 405.847656 20.890625 L 399.976562 20.445312 C 399.6875 20.398438 399.515625 20.449219 399.464844 20.59375 " fill-opacity="1" fill-rule="nonzero"/></g><g clip-path="url(#4751870fd1)"><path fill="#000000" d="M 50.472656 19.167969 L 50.453125 19.179688 C 45.105469 21.347656 40.59375 22.082031 36.917969 21.382812 C 35.253906 21.039062 33.722656 20.222656 32.320312 18.929688 C 31.636719 18.296875 30.996094 17.613281 30.398438 16.871094 C 28.945312 15.082031 27.902344 13.703125 27.265625 12.730469 C 26.832031 12.164062 26.417969 11.675781 26.027344 11.277344 C 25.539062 10.683594 24.679688 10.09375 23.449219 9.507812 C 21.875 8.945312 20.09375 8.710938 18.105469 8.796875 C 17.679688 8.792969 16.703125 8.855469 15.175781 8.980469 C 11.058594 9.449219 8.703125 9.695312 8.105469 9.722656 C 7.859375 9.753906 7.578125 9.8125 7.265625 9.898438 C 7.515625 9.832031 7.847656 9.722656 8.265625 9.566406 C 9.40625 9.078125 10.300781 8.714844 10.949219 8.476562 L 12.644531 7.890625 C 13.863281 7.480469 15.25 7.117188 16.808594 6.792969 C 19.460938 6.261719 21.777344 6.207031 23.753906 6.636719 C 25.726562 7.121094 27.417969 8.066406 28.824219 9.472656 C 29.476562 10.101562 30.199219 10.902344 30.992188 11.867188 C 32.578125 14.292969 33.707031 15.886719 34.390625 16.644531 C 35.5 17.78125 36.300781 18.410156 36.792969 18.53125 C 38.007812 19.09375 39.535156 19.402344 41.375 19.457031 C 41.925781 19.484375 42.832031 19.46875 44.085938 19.414062 L 49.960938 19.015625 C 50.25 18.972656 50.417969 19.023438 50.472656 19.167969 " fill-opacity="1" fill-rule="nonzero"/></g><g clip-path="url(#8cea4cdc13)"><path fill="#000000" d="M 214.6875 8.605469 C 214.6875 8.605469 213.933594 8.09375 213.40625 8.390625 C 212.878906 8.6875 212.949219 9.0625 212.941406 9.117188 C 212.933594 9.171875 213.136719 9.191406 213.101562 9.089844 C 213.070312 8.988281 213.066406 8.863281 213.230469 8.871094 C 213.394531 8.875 213.585938 9.101562 213.394531 9.617188 C 213.203125 10.128906 212.828125 10.4375 212.601562 10.546875 C 212.378906 10.65625 212.335938 10.675781 212.335938 10.675781 C 212.335938 10.675781 212.550781 10.519531 212.546875 10.351562 C 212.546875 10.183594 212.523438 9.894531 212.605469 9.757812 C 212.683594 9.617188 212.804688 9.5625 212.804688 9.5625 C 212.804688 9.5625 212.535156 9.617188 212.464844 9.871094 C 212.394531 10.121094 212.453125 10.289062 212.292969 10.507812 C 212.128906 10.722656 211.789062 10.824219 211.484375 10.867188 C 211.183594 10.910156 211.082031 10.871094 211.082031 10.871094 C 211.082031 10.871094 211.484375 10.789062 211.5625 10.589844 C 211.644531 10.390625 211.6875 10.066406 211.886719 9.835938 C 212.082031 9.605469 212.269531 9.53125 212.269531 9.53125 C 212.269531 9.53125 211.847656 9.589844 211.648438 10.066406 C 211.449219 10.546875 210.902344 10.96875 210.238281 10.855469 C 209.578125 10.742188 209.039062 10.164062 208.53125 9.984375 C 208.027344 9.800781 207.722656 9.777344 207.449219 10.003906 C 207.175781 10.226562 206.964844 10.332031 206.707031 10.335938 C 206.449219 10.335938 206.378906 10.1875 206.378906 10.1875 C 206.378906 10.1875 206.617188 10.402344 206.96875 10.121094 C 207.316406 9.839844 207.796875 9.324219 208.574219 9.480469 C 209.351562 9.640625 209.78125 10.15625 210.074219 10.164062 C 210.371094 10.171875 210.582031 10.109375 210.675781 10.035156 C 210.773438 9.964844 210.820312 9.894531 210.820312 9.894531 C 210.820312 9.894531 210.507812 10.128906 210.132812 10.039062 C 209.757812 9.949219 209.550781 9.6875 209.5 9.414062 C 209.449219 9.136719 209.5 8.992188 209.5 8.992188 C 209.5 8.992188 209.648438 9.496094 210.027344 9.464844 C 210.40625 9.4375 210.628906 9.292969 210.832031 9.109375 C 211.03125 8.925781 211.261719 8.9375 211.464844 8.988281 C 211.667969 9.042969 211.949219 9.042969 212.078125 8.960938 C 212.210938 8.878906 212.320312 8.746094 212.320312 8.746094 C 212.320312 8.746094 212.015625 9.035156 211.574219 8.941406 C 211.132812 8.847656 211.046875 8.488281 211 8.355469 C 210.957031 8.21875 210.980469 7.816406 210.980469 7.816406 C 210.980469 7.816406 211.101562 8.320312 211.394531 8.273438 C 211.691406 8.230469 212.128906 7.816406 212.40625 7.710938 C 212.6875 7.605469 212.925781 7.632812 213.113281 7.773438 C 213.300781 7.914062 213.480469 7.984375 213.570312 7.996094 C 213.660156 8.011719 213.378906 7.945312 213.269531 7.757812 C 213.15625 7.570312 212.941406 7.554688 212.90625 7.550781 C 212.867188 7.542969 212.714844 7.5625 212.714844 7.5625 C 212.714844 7.5625 213.050781 7.351562 213.605469 7.378906 C 214.160156 7.40625 214.425781 7.625 214.5 7.792969 C 214.578125 7.960938 214.691406 8.121094 214.769531 8.171875 C 214.84375 8.222656 214.671875 8.050781 214.617188 7.8125 C 214.566406 7.578125 214.4375 7.515625 214.4375 7.515625 C 214.4375 7.515625 214.929688 7.546875 215.328125 7.894531 C 215.753906 8.273438 215.863281 8.808594 215.917969 8.945312 C 215.976562 9.078125 215.808594 8.675781 215.390625 8.527344 C 214.976562 8.378906 214.6875 8.605469 214.6875 8.605469 Z M 214.6875 8.605469 " fill-opacity="1" fill-rule="evenodd"/></g><path fill="#000000" d="M 214.515625 9.644531 C 214.515625 9.644531 214.472656 9.226562 214.84375 9.179688 C 215.214844 9.128906 215.429688 9.285156 215.632812 9.726562 C 215.824219 10.144531 215.941406 10.472656 215.957031 10.488281 C 215.976562 10.503906 216.117188 10.464844 216.28125 10.472656 C 216.515625 10.484375 216.628906 10.546875 216.628906 10.546875 C 216.628906 10.546875 216.542969 10.140625 216.265625 9.621094 C 215.988281 9.101562 215.757812 8.769531 215.378906 8.628906 C 215 8.488281 214.585938 8.632812 214.429688 8.972656 C 214.269531 9.308594 214.4375 9.605469 214.515625 9.644531 Z M 214.515625 9.644531 " fill-opacity="1" fill-rule="evenodd"/><path fill="#000000" d="M 216.160156 11.53125 C 216.160156 11.53125 216.15625 11.386719 216.296875 11.371094 C 216.46875 11.351562 216.632812 11.476562 216.53125 11.859375 C 216.425781 12.246094 215.636719 12.351562 215.285156 12.023438 C 214.9375 11.695312 214.804688 11.269531 214.761719 11.117188 C 214.71875 10.96875 214.730469 10.851562 214.730469 10.851562 C 214.730469 10.851562 214.921875 11.269531 215.214844 11.15625 C 215.503906 11.046875 215.660156 10.554688 216.171875 10.570312 C 216.683594 10.585938 216.925781 10.90625 217.054688 11.097656 C 217.183594 11.292969 217.203125 11.367188 217.203125 11.367188 C 217.203125 11.367188 217.132812 11.425781 217.09375 11.765625 C 217.054688 12.101562 217.132812 12.402344 217.160156 12.496094 C 217.1875 12.59375 217.21875 12.648438 217.21875 12.648438 C 217.21875 12.648438 217.171875 12.621094 217.039062 12.609375 C 216.910156 12.59375 216.839844 12.652344 216.839844 12.652344 C 216.839844 12.652344 216.6875 12.554688 216.621094 12.097656 C 216.554688 11.640625 216.644531 11.480469 216.519531 11.320312 C 216.390625 11.160156 216.03125 11.253906 216.160156 11.53125 Z M 216.160156 11.53125 " fill-opacity="1" fill-rule="evenodd"/><g clip-path="url(#3df1af9b7b)"><path fill="#000000" d="M 217.363281 12.695312 C 217.363281 12.695312 217.148438 12.335938 217.183594 11.882812 C 217.214844 11.429688 217.445312 11.054688 217.746094 10.9375 C 218.042969 10.820312 218.386719 10.890625 218.503906 11.042969 C 218.625 11.191406 218.636719 11.292969 218.636719 11.292969 C 218.636719 11.292969 218.148438 10.9375 217.960938 11.402344 C 217.773438 11.867188 218.125 12.621094 218.546875 12.984375 C 219.039062 13.410156 219.375 13.695312 220.335938 13.871094 C 221.351562 14.0625 221.730469 14.046875 222.171875 14.058594 C 222.699219 14.070312 223.070312 14.058594 223.070312 14.058594 C 223.070312 14.058594 221.925781 14.515625 220.304688 14.425781 C 219.113281 14.359375 218.199219 13.894531 217.726562 13.601562 C 217.25 13.3125 217.011719 12.976562 216.929688 12.855469 C 216.847656 12.738281 216.84375 12.699219 216.84375 12.699219 C 216.84375 12.699219 216.960938 12.640625 217.125 12.675781 C 217.289062 12.710938 217.421875 12.785156 217.421875 12.785156 Z M 217.363281 12.695312 " fill-opacity="1" fill-rule="evenodd"/></g><path fill="#000000" d="M 217.273438 11.253906 C 217.273438 11.253906 217.214844 11.085938 217.054688 10.890625 C 216.890625 10.691406 216.769531 10.617188 216.769531 10.617188 C 216.769531 10.617188 216.679688 10.355469 216.703125 9.976562 C 216.722656 9.597656 216.816406 9.320312 216.976562 9.152344 C 217.136719 8.980469 217.269531 8.945312 217.269531 8.945312 C 217.269531 8.945312 217.378906 9.0625 217.394531 9.242188 C 217.410156 9.425781 217.363281 9.652344 217.363281 9.652344 C 217.363281 9.652344 217.40625 9.472656 217.585938 9.199219 C 217.769531 8.925781 218.367188 8.570312 218.855469 8.664062 C 219.339844 8.757812 219.570312 9.042969 219.597656 9.320312 C 219.628906 9.597656 219.417969 9.894531 219.089844 9.859375 C 218.765625 9.828125 218.777344 9.535156 218.875 9.449219 C 218.976562 9.363281 219.101562 9.4375 219.066406 9.546875 C 219.03125 9.660156 219.242188 9.464844 219.09375 9.28125 C 218.945312 9.097656 218.191406 8.984375 217.816406 9.773438 C 217.488281 10.46875 217.507812 10.96875 217.507812 10.96875 C 217.417969 11.046875 217.339844 11.144531 217.273438 11.253906 Z M 217.273438 11.253906 " fill-opacity="1" fill-rule="evenodd"/><path fill="#000000" d="M 216.632812 10.28125 C 216.632812 10.28125 216.460938 10.050781 216.421875 9.652344 C 216.386719 9.246094 216.460938 9.035156 216.640625 8.761719 C 216.824219 8.484375 217.003906 8.320312 217.003906 8.320312 C 217.003906 8.320312 216.976562 8.410156 217.019531 8.539062 C 217.058594 8.664062 217.019531 8.796875 216.984375 8.875 C 216.949219 8.949219 217.089844 8.828125 217.105469 8.675781 C 217.121094 8.523438 217.042969 8.378906 217.148438 8.160156 C 217.253906 7.941406 217.476562 7.828125 217.566406 7.625 C 217.65625 7.425781 217.523438 7.230469 217.523438 7.230469 C 217.523438 7.230469 217.921875 7.226562 218.15625 7.589844 C 218.390625 7.949219 218.265625 8.324219 218.171875 8.492188 C 218.082031 8.660156 217.929688 8.792969 217.929688 8.792969 C 217.929688 8.792969 217.75 8.902344 217.609375 9.082031 C 217.472656 9.265625 217.449219 9.316406 217.449219 9.316406 C 217.449219 9.316406 217.472656 9.128906 217.386719 8.972656 C 217.3125 8.835938 217.28125 8.8125 217.28125 8.8125 C 217.28125 8.8125 216.878906 9.042969 216.726562 9.425781 C 216.582031 9.792969 216.632812 10.28125 216.632812 10.28125 Z M 216.632812 10.28125 " fill-opacity="1" fill-rule="evenodd"/><path fill="#000000" d="M 218.335938 8.539062 C 218.335938 8.539062 218.433594 8.332031 218.429688 8.085938 C 218.429688 7.964844 218.414062 7.9375 218.414062 7.9375 C 218.414062 7.9375 218.789062 7.734375 218.785156 7.316406 C 218.78125 6.898438 218.6875 6.722656 218.558594 6.632812 C 218.429688 6.539062 218.628906 6.382812 218.863281 6.519531 C 219.097656 6.65625 219.382812 7.246094 219.214844 7.816406 C 219.046875 8.386719 218.296875 8.625 218.296875 8.625 Z M 218.335938 8.539062 " fill-opacity="1" fill-rule="evenodd"/><g clip-path="url(#e4cd4d653e)"><path fill="#000000" d="M 218.675781 8.542969 C 218.675781 8.542969 219.179688 8.347656 219.304688 7.871094 C 219.425781 7.394531 219.367188 6.964844 219.117188 6.597656 C 218.867188 6.230469 218.382812 6.320312 218.457031 6.582031 C 218.476562 6.652344 218.527344 6.625 218.558594 6.75 C 218.585938 6.84375 218.535156 7.0625 218.136719 7.050781 C 217.726562 7.039062 217.425781 6.886719 217.234375 6.570312 C 217.039062 6.253906 217.042969 6.058594 217.019531 5.925781 C 216.992188 5.789062 217.011719 5.609375 217.011719 5.609375 C 217.011719 5.609375 217.132812 5.804688 217.285156 5.839844 C 217.441406 5.878906 217.625 5.84375 217.777344 5.945312 C 217.933594 6.050781 217.980469 6.246094 217.980469 6.246094 C 217.980469 6.246094 218.023438 5.964844 217.765625 5.855469 C 217.507812 5.746094 217.367188 5.847656 217.191406 5.691406 C 217.015625 5.535156 216.957031 5.210938 217.066406 4.921875 C 217.171875 4.636719 217.476562 4.378906 217.433594 4.066406 C 217.390625 3.75 217.285156 3.660156 217.269531 3.648438 C 217.25 3.636719 217.125 3.40625 217.183594 3.179688 C 217.238281 2.957031 217.339844 2.90625 217.339844 2.90625 C 217.339844 2.90625 217.183594 3.1875 217.34375 3.402344 C 217.5 3.617188 217.761719 3.773438 217.796875 4.175781 C 217.828125 4.574219 217.632812 4.625 217.679688 4.878906 C 217.726562 5.136719 217.9375 5.171875 218.179688 5.207031 C 218.421875 5.242188 218.765625 5.355469 218.882812 5.660156 C 219 5.96875 218.941406 6.007812 218.960938 6.160156 C 218.976562 6.3125 219.085938 6.410156 219.085938 6.410156 C 219.085938 6.410156 218.992188 6.25 219.007812 6.046875 C 219.023438 5.839844 219.023438 5.71875 218.988281 5.644531 C 218.957031 5.574219 218.90625 5.507812 218.90625 5.507812 C 218.90625 5.507812 219.335938 5.691406 219.542969 6.078125 C 219.746094 6.460938 219.78125 6.722656 219.738281 6.941406 C 219.707031 7.09375 219.625 7.214844 219.59375 7.285156 C 219.539062 7.40625 219.550781 7.476562 219.550781 7.476562 C 219.550781 7.476562 219.550781 7.351562 219.691406 7.164062 C 219.820312 6.992188 219.816406 6.789062 219.816406 6.789062 C 219.816406 6.789062 219.964844 7.292969 219.839844 7.644531 C 219.71875 7.996094 219.375 8.429688 219.207031 8.550781 C 219.039062 8.675781 219.042969 8.675781 219.042969 8.675781 C 219.042969 8.675781 218.832031 8.605469 218.605469 8.625 C 218.523438 8.632812 218.34375 8.675781 218.34375 8.675781 C 218.34375 8.675781 218.53125 8.597656 218.675781 8.542969 Z M 218.675781 8.542969 " fill-opacity="1" fill-rule="evenodd"/></g><path fill="#000000" d="M 218.785156 9.675781 C 218.785156 9.675781 218.800781 9.945312 219.242188 9.894531 C 219.679688 9.839844 219.722656 9.464844 219.691406 9.3125 C 219.664062 9.15625 219.375 8.914062 219.34375 8.742188 C 219.316406 8.570312 219.40625 8.367188 219.585938 8.230469 C 219.761719 8.089844 219.835938 8.070312 219.835938 8.070312 C 219.835938 8.070312 219.789062 8.226562 219.832031 8.332031 C 219.875 8.4375 219.90625 8.574219 219.851562 8.691406 C 219.796875 8.8125 219.96875 8.585938 219.9375 8.4375 C 219.902344 8.289062 219.871094 8.054688 220.023438 7.667969 C 220.175781 7.277344 219.976562 6.929688 219.976562 6.929688 C 219.976562 6.929688 220.390625 7.300781 220.515625 7.863281 C 220.632812 8.390625 220.621094 9.164062 220.253906 9.703125 C 219.824219 10.332031 218.78125 10.222656 218.785156 9.675781 Z M 218.785156 9.675781 " fill-opacity="1" fill-rule="evenodd"/><g clip-path="url(#64fcb092ce)"><g transform="matrix(1, 0, 0, 1, 227, 2)"><g clip-path="url(#acb98197ae)"><g clip-path="url(#188b3a7c4a)"><path fill="#000000" d="M 8.304688 6.605469 C 8.304688 6.605469 9.0625 6.09375 9.589844 6.390625 C 10.117188 6.6875 10.046875 7.0625 10.054688 7.117188 C 10.0625 7.171875 9.859375 7.191406 9.894531 7.089844 C 9.925781 6.988281 9.929688 6.863281 9.765625 6.871094 C 9.601562 6.875 9.40625 7.101562 9.601562 7.617188 C 9.792969 8.128906 10.167969 8.4375 10.394531 8.546875 C 10.617188 8.65625 10.65625 8.675781 10.65625 8.675781 C 10.65625 8.675781 10.445312 8.519531 10.445312 8.351562 C 10.449219 8.183594 10.472656 7.894531 10.390625 7.757812 C 10.3125 7.617188 10.191406 7.5625 10.191406 7.5625 C 10.191406 7.5625 10.460938 7.617188 10.53125 7.871094 C 10.601562 8.121094 10.542969 8.289062 10.703125 8.507812 C 10.867188 8.722656 11.207031 8.824219 11.511719 8.867188 C 11.8125 8.910156 11.914062 8.871094 11.914062 8.871094 C 11.914062 8.871094 11.511719 8.789062 11.429688 8.589844 C 11.351562 8.390625 11.308594 8.066406 11.109375 7.835938 C 10.914062 7.605469 10.726562 7.53125 10.726562 7.53125 C 10.726562 7.53125 11.148438 7.589844 11.347656 8.066406 C 11.542969 8.546875 12.09375 8.96875 12.757812 8.855469 C 13.417969 8.742188 13.957031 8.164062 14.464844 7.984375 C 14.96875 7.800781 15.273438 7.777344 15.546875 8.003906 C 15.820312 8.226562 16.027344 8.332031 16.289062 8.335938 C 16.546875 8.335938 16.617188 8.1875 16.617188 8.1875 C 16.617188 8.1875 16.378906 8.402344 16.027344 8.121094 C 15.679688 7.839844 15.199219 7.324219 14.421875 7.480469 C 13.644531 7.640625 13.214844 8.15625 12.921875 8.164062 C 12.625 8.171875 12.414062 8.109375 12.320312 8.035156 C 12.222656 7.964844 12.175781 7.894531 12.175781 7.894531 C 12.175781 7.894531 12.484375 8.128906 12.863281 8.039062 C 13.238281 7.949219 13.445312 7.6875 13.496094 7.414062 C 13.546875 7.136719 13.492188 6.992188 13.492188 6.992188 C 13.492188 6.992188 13.347656 7.496094 12.96875 7.464844 C 12.589844 7.4375 12.367188 7.292969 12.164062 7.109375 C 11.964844 6.925781 11.734375 6.9375 11.53125 6.988281 C 11.328125 7.042969 11.046875 7.042969 10.914062 6.960938 C 10.785156 6.878906 10.675781 6.746094 10.675781 6.746094 C 10.675781 6.746094 10.980469 7.035156 11.421875 6.941406 C 11.863281 6.847656 11.949219 6.488281 11.996094 6.355469 C 12.039062 6.21875 12.015625 5.816406 12.015625 5.816406 C 12.015625 5.816406 11.894531 6.320312 11.597656 6.273438 C 11.304688 6.230469 10.867188 5.816406 10.585938 5.710938 C 10.308594 5.605469 10.066406 5.632812 9.878906 5.773438 C 9.695312 5.914062 9.515625 5.984375 9.425781 5.996094 C 9.335938 6.011719 9.613281 5.945312 9.726562 5.757812 C 9.839844 5.570312 10.050781 5.554688 10.089844 5.550781 C 10.128906 5.542969 10.28125 5.5625 10.28125 5.5625 C 10.28125 5.5625 9.945312 5.351562 9.390625 5.378906 C 8.832031 5.40625 8.570312 5.625 8.492188 5.792969 C 8.417969 5.960938 8.304688 6.121094 8.226562 6.171875 C 8.152344 6.222656 8.324219 6.050781 8.378906 5.8125 C 8.429688 5.578125 8.558594 5.515625 8.558594 5.515625 C 8.558594 5.515625 8.066406 5.546875 7.667969 5.894531 C 7.238281 6.273438 7.132812 6.808594 7.074219 6.945312 C 7.019531 7.078125 7.1875 6.675781 7.605469 6.527344 C 8.019531 6.378906 8.304688 6.605469 8.304688 6.605469 Z M 8.304688 6.605469 " fill-opacity="1" fill-rule="evenodd"/></g><path fill="#000000" d="M 8.480469 7.644531 C 8.480469 7.644531 8.519531 7.226562 8.152344 7.179688 C 7.78125 7.128906 7.566406 7.285156 7.363281 7.726562 C 7.167969 8.144531 7.054688 8.472656 7.039062 8.488281 C 7.019531 8.503906 6.878906 8.464844 6.714844 8.472656 C 6.480469 8.484375 6.367188 8.546875 6.367188 8.546875 C 6.367188 8.546875 6.453125 8.140625 6.730469 7.621094 C 7.003906 7.101562 7.238281 6.769531 7.617188 6.628906 C 7.996094 6.488281 8.410156 6.632812 8.566406 6.972656 C 8.726562 7.308594 8.558594 7.605469 8.480469 7.644531 Z M 8.480469 7.644531 " fill-opacity="1" fill-rule="evenodd"/><path fill="#000000" d="M 6.835938 9.53125 C 6.835938 9.53125 6.839844 9.386719 6.699219 9.371094 C 6.527344 9.351562 6.363281 9.476562 6.464844 9.859375 C 6.570312 10.246094 7.359375 10.351562 7.710938 10.023438 C 8.058594 9.695312 8.191406 9.269531 8.234375 9.117188 C 8.277344 8.96875 8.265625 8.851562 8.265625 8.851562 C 8.265625 8.851562 8.074219 9.269531 7.78125 9.15625 C 7.492188 9.046875 7.335938 8.554688 6.824219 8.570312 C 6.3125 8.585938 6.066406 8.90625 5.941406 9.097656 C 5.8125 9.292969 5.792969 9.367188 5.792969 9.367188 C 5.792969 9.367188 5.863281 9.425781 5.902344 9.765625 C 5.9375 10.101562 5.863281 10.402344 5.835938 10.496094 C 5.808594 10.59375 5.773438 10.648438 5.773438 10.648438 C 5.773438 10.648438 5.824219 10.621094 5.957031 10.609375 C 6.085938 10.59375 6.15625 10.652344 6.15625 10.652344 C 6.15625 10.652344 6.308594 10.554688 6.375 10.097656 C 6.441406 9.640625 6.351562 9.480469 6.476562 9.320312 C 6.601562 9.160156 6.964844 9.253906 6.835938 9.53125 Z M 6.835938 9.53125 " fill-opacity="1" fill-rule="evenodd"/><g clip-path="url(#b694dc74ec)"><path fill="#000000" d="M 5.632812 10.695312 C 5.632812 10.695312 5.84375 10.335938 5.8125 9.882812 C 5.78125 9.429688 5.550781 9.054688 5.25 8.9375 C 4.953125 8.820312 4.609375 8.890625 4.492188 9.042969 C 4.371094 9.191406 4.359375 9.292969 4.359375 9.292969 C 4.359375 9.292969 4.847656 8.9375 5.035156 9.402344 C 5.222656 9.867188 4.871094 10.621094 4.449219 10.984375 C 3.957031 11.410156 3.621094 11.695312 2.660156 11.871094 C 1.644531 12.0625 1.265625 12.046875 0.824219 12.058594 C 0.296875 12.070312 -0.0742188 12.058594 -0.0742188 12.058594 C -0.0742188 12.058594 1.070312 12.515625 2.691406 12.425781 C 3.882812 12.359375 4.796875 11.894531 5.269531 11.601562 C 5.742188 11.3125 5.984375 10.976562 6.066406 10.855469 C 6.148438 10.738281 6.152344 10.699219 6.152344 10.699219 C 6.152344 10.699219 6.035156 10.640625 5.871094 10.675781 C 5.707031 10.710938 5.574219 10.785156 5.574219 10.785156 Z M 5.632812 10.695312 " fill-opacity="1" fill-rule="evenodd"/></g><path fill="#000000" d="M 5.722656 9.253906 C 5.722656 9.253906 5.78125 9.085938 5.941406 8.890625 C 6.105469 8.691406 6.226562 8.617188 6.226562 8.617188 C 6.226562 8.617188 6.3125 8.355469 6.292969 7.976562 C 6.273438 7.597656 6.179688 7.320312 6.019531 7.152344 C 5.859375 6.980469 5.722656 6.945312 5.722656 6.945312 C 5.722656 6.945312 5.617188 7.0625 5.601562 7.242188 C 5.585938 7.425781 5.632812 7.652344 5.632812 7.652344 C 5.632812 7.652344 5.589844 7.472656 5.410156 7.199219 C 5.226562 6.925781 4.628906 6.570312 4.140625 6.664062 C 3.65625 6.757812 3.425781 7.042969 3.398438 7.320312 C 3.367188 7.597656 3.578125 7.894531 3.902344 7.859375 C 4.230469 7.828125 4.21875 7.535156 4.121094 7.449219 C 4.019531 7.363281 3.894531 7.4375 3.929688 7.546875 C 3.964844 7.660156 3.753906 7.464844 3.902344 7.28125 C 4.050781 7.097656 4.804688 6.984375 5.179688 7.773438 C 5.507812 8.46875 5.488281 8.96875 5.488281 8.96875 C 5.578125 9.046875 5.652344 9.144531 5.722656 9.253906 Z M 5.722656 9.253906 " fill-opacity="1" fill-rule="evenodd"/><path fill="#000000" d="M 6.363281 8.28125 C 6.363281 8.28125 6.535156 8.050781 6.570312 7.652344 C 6.609375 7.246094 6.535156 7.035156 6.351562 6.761719 C 6.171875 6.484375 5.992188 6.320312 5.992188 6.320312 C 5.992188 6.320312 6.015625 6.410156 5.976562 6.539062 C 5.9375 6.664062 5.976562 6.796875 6.011719 6.875 C 6.046875 6.949219 5.90625 6.828125 5.890625 6.675781 C 5.875 6.523438 5.953125 6.378906 5.847656 6.160156 C 5.738281 5.941406 5.519531 5.828125 5.429688 5.625 C 5.339844 5.425781 5.472656 5.230469 5.472656 5.230469 C 5.472656 5.230469 5.074219 5.226562 4.839844 5.589844 C 4.601562 5.949219 4.730469 6.324219 4.824219 6.492188 C 4.914062 6.660156 5.0625 6.792969 5.0625 6.792969 C 5.0625 6.792969 5.246094 6.902344 5.386719 7.082031 C 5.523438 7.265625 5.546875 7.316406 5.546875 7.316406 C 5.546875 7.316406 5.523438 7.128906 5.609375 6.972656 C 5.683594 6.835938 5.710938 6.8125 5.710938 6.8125 C 5.710938 6.8125 6.117188 7.042969 6.269531 7.425781 C 6.410156 7.792969 6.363281 8.28125 6.363281 8.28125 Z M 6.363281 8.28125 " fill-opacity="1" fill-rule="evenodd"/><path fill="#000000" d="M 4.660156 6.539062 C 4.660156 6.539062 4.5625 6.332031 4.566406 6.085938 C 4.566406 5.964844 4.582031 5.9375 4.582031 5.9375 C 4.582031 5.9375 4.207031 5.734375 4.210938 5.316406 C 4.214844 4.898438 4.308594 4.722656 4.4375 4.632812 C 4.5625 4.539062 4.367188 4.382812 4.132812 4.519531 C 3.894531 4.65625 3.613281 5.246094 3.78125 5.816406 C 3.949219 6.386719 4.699219 6.625 4.699219 6.625 Z M 4.660156 6.539062 " fill-opacity="1" fill-rule="evenodd"/><g clip-path="url(#42c4e2ac52)"><path fill="#000000" d="M 4.320312 6.542969 C 4.320312 6.542969 3.8125 6.347656 3.691406 5.871094 C 3.570312 5.394531 3.628906 4.964844 3.878906 4.597656 C 4.128906 4.230469 4.613281 4.320312 4.539062 4.582031 C 4.519531 4.652344 4.46875 4.625 4.433594 4.75 C 4.410156 4.84375 4.457031 5.0625 4.859375 5.050781 C 5.269531 5.039062 5.570312 4.886719 5.761719 4.570312 C 5.957031 4.253906 5.949219 4.058594 5.976562 3.925781 C 6.003906 3.789062 5.984375 3.609375 5.984375 3.609375 C 5.984375 3.609375 5.863281 3.804688 5.710938 3.839844 C 5.554688 3.878906 5.371094 3.84375 5.21875 3.945312 C 5.0625 4.050781 5.015625 4.246094 5.015625 4.246094 C 5.015625 4.246094 4.972656 3.964844 5.230469 3.855469 C 5.484375 3.746094 5.628906 3.847656 5.804688 3.691406 C 5.980469 3.535156 6.039062 3.210938 5.929688 2.921875 C 5.820312 2.636719 5.519531 2.378906 5.5625 2.066406 C 5.605469 1.75 5.710938 1.660156 5.726562 1.648438 C 5.746094 1.636719 5.871094 1.40625 5.8125 1.179688 C 5.753906 0.957031 5.65625 0.90625 5.65625 0.90625 C 5.65625 0.90625 5.8125 1.1875 5.652344 1.402344 C 5.496094 1.617188 5.234375 1.773438 5.199219 2.175781 C 5.167969 2.574219 5.363281 2.625 5.316406 2.878906 C 5.265625 3.136719 5.058594 3.171875 4.816406 3.207031 C 4.570312 3.242188 4.226562 3.355469 4.113281 3.660156 C 3.996094 3.96875 4.054688 4.007812 4.035156 4.160156 C 4.019531 4.3125 3.910156 4.410156 3.910156 4.410156 C 3.910156 4.410156 4.003906 4.25 3.988281 4.046875 C 3.972656 3.839844 3.972656 3.71875 4.007812 3.644531 C 4.039062 3.574219 4.089844 3.507812 4.089844 3.507812 C 4.089844 3.507812 3.660156 3.691406 3.453125 4.078125 C 3.25 4.460938 3.214844 4.722656 3.257812 4.941406 C 3.289062 5.09375 3.371094 5.214844 3.402344 5.285156 C 3.453125 5.40625 3.441406 5.476562 3.441406 5.476562 C 3.441406 5.476562 3.441406 5.351562 3.304688 5.164062 C 3.175781 4.992188 3.179688 4.789062 3.179688 4.789062 C 3.179688 4.789062 3.03125 5.292969 3.152344 5.644531 C 3.277344 5.996094 3.621094 6.429688 3.789062 6.550781 C 3.957031 6.675781 3.953125 6.675781 3.953125 6.675781 C 3.953125 6.675781 4.164062 6.605469 4.390625 6.625 C 4.472656 6.632812 4.652344 6.675781 4.652344 6.675781 C 4.652344 6.675781 4.464844 6.597656 4.320312 6.542969 Z M 4.320312 6.542969 " fill-opacity="1" fill-rule="evenodd"/></g><path fill="#000000" d="M 4.210938 7.675781 C 4.210938 7.675781 4.195312 7.945312 3.753906 7.894531 C 3.316406 7.839844 3.273438 7.464844 3.300781 7.3125 C 3.332031 7.15625 3.621094 6.914062 3.652344 6.742188 C 3.679688 6.570312 3.589844 6.367188 3.410156 6.230469 C 3.234375 6.089844 3.160156 6.070312 3.160156 6.070312 C 3.160156 6.070312 3.207031 6.226562 3.164062 6.332031 C 3.121094 6.4375 3.089844 6.574219 3.144531 6.691406 C 3.199219 6.8125 3.027344 6.585938 3.058594 6.4375 C 3.09375 6.289062 3.125 6.054688 2.972656 5.667969 C 2.820312 5.277344 3.019531 4.929688 3.019531 4.929688 C 3.019531 4.929688 2.605469 5.300781 2.480469 5.863281 C 2.363281 6.390625 2.375 7.164062 2.742188 7.703125 C 3.171875 8.332031 4.214844 8.222656 4.210938 7.675781 Z M 4.210938 7.675781 " fill-opacity="1" fill-rule="evenodd"/></g></g></g><path fill="#000000" d="M 228.179688 23.894531 C 228.164062 23.867188 228.097656 23.792969 227.941406 23.804688 C 227.75 23.820312 227.625 23.941406 227.484375 23.960938 C 227.347656 23.976562 227.25 23.984375 227.25 23.984375 C 227.25 23.984375 227.433594 24.03125 227.683594 23.953125 C 227.933594 23.871094 228.125 23.960938 228.363281 24.054688 C 228.601562 24.148438 228.828125 24.140625 228.941406 24.101562 C 229.050781 24.0625 229.136719 24.015625 229.136719 24.015625 C 229.136719 24.015625 228.695312 24.46875 227.921875 24.476562 C 227.148438 24.484375 226.425781 24.066406 226.132812 23.78125 C 225.84375 23.5 225.621094 23.199219 225.441406 22.769531 C 225.261719 22.339844 225.230469 22.105469 225.230469 22.105469 C 225.230469 22.105469 225.742188 23.09375 226.128906 23.402344 C 226.515625 23.714844 226.757812 23.734375 226.90625 23.699219 C 227.054688 23.664062 227.1875 23.519531 227.113281 23.453125 C 227.078125 23.421875 227.117188 23.574219 226.980469 23.570312 C 226.878906 23.570312 226.839844 23.40625 226.933594 23.289062 C 227.046875 23.140625 227.332031 23.089844 227.671875 23.355469 C 227.980469 23.59375 228.148438 23.84375 228.179688 23.894531 Z M 228.179688 23.894531 C 228.183594 23.898438 228.1875 23.902344 228.1875 23.902344 C 228.1875 23.902344 228.183594 23.898438 228.179688 23.894531 Z M 222.101562 23.894531 C 222.132812 23.84375 222.304688 23.59375 222.609375 23.355469 C 222.949219 23.089844 223.234375 23.140625 223.347656 23.285156 C 223.441406 23.40625 223.402344 23.566406 223.300781 23.570312 C 223.167969 23.574219 223.203125 23.417969 223.167969 23.453125 C 223.09375 23.519531 223.226562 23.660156 223.375 23.699219 C 223.523438 23.734375 223.765625 23.714844 224.152344 23.402344 C 224.539062 23.089844 225.054688 22.105469 225.054688 22.105469 C 225.054688 22.105469 225.019531 22.339844 224.839844 22.769531 C 224.664062 23.195312 224.4375 23.5 224.148438 23.78125 C 223.855469 24.0625 223.136719 24.484375 222.359375 24.476562 C 221.585938 24.46875 221.148438 24.015625 221.148438 24.015625 C 221.148438 24.015625 221.230469 24.0625 221.34375 24.101562 C 221.453125 24.140625 221.683594 24.148438 221.921875 24.054688 C 222.160156 23.960938 222.347656 23.871094 222.597656 23.949219 C 222.847656 24.03125 223.03125 23.980469 223.03125 23.980469 C 223.03125 23.980469 222.9375 23.976562 222.796875 23.960938 C 222.65625 23.941406 222.53125 23.820312 222.34375 23.804688 C 222.1875 23.792969 222.121094 23.867188 222.101562 23.894531 Z M 222.101562 23.894531 C 222.097656 23.898438 222.097656 23.902344 222.097656 23.902344 C 222.097656 23.902344 222.097656 23.898438 222.101562 23.894531 Z M 222.101562 23.894531 " fill-opacity="1" fill-rule="evenodd"/><path fill="#000000" d="M 225.113281 22.527344 C 225.113281 22.527344 224.898438 23.429688 224.625 23.878906 C 224.398438 24.257812 224.074219 24.992188 222.875 25.304688 C 221.464844 25.671875 220.585938 25.007812 220.347656 24.457031 C 220.097656 23.875 220.203125 22.90625 221.097656 22.773438 C 221.953125 22.644531 222.15625 23.640625 221.628906 23.714844 C 221.1875 23.777344 221.175781 23.347656 221.175781 23.347656 C 221.175781 23.347656 220.96875 23.210938 220.789062 23.511719 C 220.621094 23.785156 220.703125 24.324219 220.855469 24.492188 C 220.90625 24.546875 221.527344 25.296875 222.945312 24.882812 C 223.886719 24.609375 224.453125 23.90625 224.75 23.328125 C 225.003906 22.84375 225.113281 22.527344 225.113281 22.527344 Z M 225.167969 22.527344 C 225.167969 22.527344 225.28125 22.84375 225.53125 23.328125 C 225.832031 23.90625 226.394531 24.613281 227.335938 24.882812 C 228.753906 25.296875 229.378906 24.546875 229.425781 24.492188 C 229.578125 24.328125 229.660156 23.785156 229.496094 23.511719 C 229.316406 23.214844 229.105469 23.347656 229.105469 23.347656 C 229.105469 23.347656 229.097656 23.78125 228.652344 23.71875 C 228.128906 23.644531 228.328125 22.644531 229.183594 22.773438 C 230.078125 22.910156 230.183594 23.875 229.933594 24.457031 C 229.695312 25.007812 228.816406 25.671875 227.410156 25.304688 C 226.210938 24.992188 225.886719 24.257812 225.65625 23.882812 C 225.382812 23.429688 225.167969 22.527344 225.167969 22.527344 Z M 225.167969 22.527344 " fill-opacity="1" fill-rule="evenodd"/><g clip-path="url(#06a4a985e3)"><path fill="#000000" d="M 225.128906 22.601562 C 225.132812 22.625 225.09375 23.101562 225.042969 23.351562 C 224.996094 23.605469 224.878906 23.984375 224.707031 24.289062 C 224.539062 24.597656 224.328125 24.738281 224.351562 24.707031 C 224.378906 24.679688 224.40625 24.566406 224.414062 24.472656 C 224.425781 24.378906 224.46875 24.289062 224.46875 24.289062 C 224.46875 24.289062 224.421875 24.359375 224.40625 24.402344 C 224.394531 24.445312 224.390625 24.503906 224.351562 24.617188 C 224.3125 24.730469 224.238281 24.929688 223.964844 25.171875 C 223.695312 25.410156 223.457031 25.460938 223.457031 25.460938 C 223.457031 25.460938 223.566406 25.367188 223.613281 25.246094 C 223.65625 25.125 223.726562 25.050781 223.726562 25.050781 C 223.726562 25.050781 223.636719 25.125 223.601562 25.183594 C 223.566406 25.242188 223.53125 25.308594 223.472656 25.375 C 223.410156 25.441406 223.414062 25.535156 222.976562 25.738281 C 222.539062 25.9375 222.300781 25.890625 222.300781 25.890625 C 222.300781 25.890625 222.402344 25.855469 222.464844 25.816406 C 222.527344 25.777344 222.621094 25.652344 222.695312 25.550781 C 222.769531 25.449219 222.867188 25.429688 222.867188 25.429688 C 222.867188 25.429688 222.855469 25.40625 222.765625 25.453125 C 222.679688 25.5 222.609375 25.613281 222.488281 25.71875 C 222.367188 25.820312 222.171875 25.910156 221.835938 26.015625 C 221.503906 26.121094 220.953125 25.90625 220.953125 25.90625 C 220.953125 25.90625 221.023438 25.917969 221.128906 25.890625 C 221.234375 25.863281 221.339844 25.765625 221.441406 25.65625 C 221.546875 25.546875 221.710938 25.488281 221.710938 25.488281 C 221.710938 25.488281 221.578125 25.511719 221.492188 25.570312 C 221.40625 25.628906 221.335938 25.6875 221.023438 25.769531 C 220.710938 25.851562 220.328125 25.71875 220.035156 25.5625 C 219.742188 25.40625 219.75 25.542969 219.507812 25.546875 C 219.269531 25.550781 219.179688 25.386719 219.179688 25.386719 C 219.179688 25.386719 219.25 25.429688 219.351562 25.410156 C 219.449219 25.386719 219.546875 25.210938 219.792969 25.113281 C 220.039062 25.011719 220.5 25.320312 220.390625 25.246094 C 220.277344 25.167969 220.023438 25.035156 219.742188 25.035156 C 219.460938 25.03125 219.34375 25.148438 218.941406 25.191406 C 218.539062 25.234375 218.40625 24.980469 218.296875 24.863281 C 218.183594 24.75 218.203125 24.753906 217.96875 24.761719 C 217.734375 24.773438 217.613281 24.59375 217.613281 24.59375 C 217.613281 24.59375 217.691406 24.644531 217.785156 24.65625 C 217.878906 24.671875 218.039062 24.539062 218.222656 24.554688 C 218.40625 24.570312 218.484375 24.714844 218.605469 24.769531 C 218.722656 24.820312 218.886719 24.734375 219.117188 24.601562 C 219.351562 24.472656 219.585938 24.632812 219.75 24.675781 C 219.914062 24.71875 220.007812 24.621094 220.007812 24.621094 C 220.007812 24.621094 219.996094 24.628906 219.863281 24.644531 C 219.730469 24.664062 219.46875 24.511719 219.347656 24.488281 C 219.226562 24.46875 219.144531 24.53125 219.144531 24.53125 C 219.144531 24.53125 219.234375 24.328125 219.59375 24.199219 C 219.953125 24.066406 220.175781 24.242188 220.175781 24.242188 C 220.175781 24.242188 220.128906 24.214844 220.402344 24.6875 C 220.675781 25.160156 221.648438 25.660156 222.796875 25.386719 C 223.941406 25.113281 224.246094 24.597656 224.609375 24.019531 C 224.972656 23.441406 225.128906 22.601562 225.128906 22.601562 Z M 219.203125 24.144531 C 219.203125 24.144531 219.128906 24.363281 218.585938 24.4375 C 217.972656 24.519531 217.367188 24.335938 216.914062 24.0625 C 216.464844 23.792969 216.246094 23.417969 216.246094 23.417969 C 216.246094 23.417969 216.375 23.554688 216.589844 23.535156 C 216.804688 23.511719 217.042969 23.613281 217.015625 23.589844 C 216.992188 23.566406 216.851562 23.507812 216.65625 23.488281 C 216.460938 23.472656 216.351562 23.421875 216.15625 23.21875 C 215.957031 23.011719 215.890625 22.613281 215.71875 22.382812 C 215.546875 22.15625 215.171875 22.300781 215.171875 22.300781 C 215.171875 22.300781 215.332031 22.121094 215.648438 22.152344 C 215.964844 22.183594 216.09375 22.480469 216.09375 22.480469 C 216.09375 22.480469 216.117188 22.453125 215.984375 22.28125 C 215.851562 22.109375 215.570312 22.117188 215.132812 21.957031 C 214.691406 21.796875 214.507812 21.183594 214.410156 20.929688 C 214.308594 20.675781 213.894531 20.546875 213.894531 20.546875 C 213.894531 20.546875 214.050781 20.5625 214.207031 20.609375 C 214.359375 20.65625 214.574219 20.90625 214.660156 21.046875 C 214.742188 21.191406 214.890625 21.394531 215.09375 21.480469 C 215.296875 21.570312 215.980469 21.613281 216.292969 21.808594 C 216.601562 22.003906 216.679688 22.441406 216.847656 22.699219 C 217.015625 22.960938 217.246094 22.902344 217.246094 22.902344 C 217.246094 22.902344 217.171875 22.894531 217.042969 22.820312 C 216.914062 22.746094 216.707031 22.453125 216.671875 22.128906 C 216.640625 21.800781 216.816406 21.738281 216.816406 21.738281 C 216.816406 21.738281 216.777344 21.84375 216.867188 21.960938 C 216.957031 22.078125 217.207031 22.109375 217.710938 22.183594 C 218.214844 22.253906 218.457031 22.441406 218.492188 22.707031 C 218.527344 22.96875 218.433594 23.058594 218.433594 23.058594 C 218.433594 23.058594 218.503906 22.949219 218.351562 22.746094 C 218.195312 22.546875 218.035156 22.5625 217.925781 22.566406 C 217.816406 22.566406 217.40625 22.589844 217.300781 23.046875 C 217.191406 23.503906 217.390625 24.042969 218.054688 24.25 C 218.71875 24.460938 219.203125 24.144531 219.203125 24.144531 Z M 221.589844 22.71875 C 221.589844 22.71875 221.238281 22.492188 220.746094 22.703125 C 220.253906 22.917969 219.992188 23.128906 219.816406 23.261719 C 219.644531 23.390625 219.515625 23.507812 219.273438 23.511719 C 219.035156 23.511719 218.816406 23.328125 218.722656 23.121094 C 218.628906 22.917969 218.664062 22.710938 218.65625 22.628906 C 218.644531 22.542969 218.625 22.492188 218.5625 22.464844 C 218.5 22.433594 218.476562 22.429688 218.476562 22.429688 C 218.476562 22.429688 218.660156 22.359375 218.753906 22.535156 C 218.84375 22.714844 218.84375 22.964844 219.050781 22.972656 C 219.261719 22.980469 219.28125 22.878906 219.550781 22.902344 C 219.816406 22.921875 219.816406 23.003906 219.941406 22.984375 C 220.066406 22.96875 220.097656 22.914062 220.097656 22.914062 C 220.097656 22.914062 220.019531 22.976562 219.890625 22.949219 C 219.765625 22.925781 219.714844 22.875 219.644531 22.863281 C 219.574219 22.855469 219.53125 22.863281 219.53125 22.863281 C 219.53125 22.863281 219.761719 22.628906 220.238281 22.539062 C 220.628906 22.460938 220.996094 22.492188 221.207031 22.542969 C 221.519531 22.621094 221.589844 22.722656 221.589844 22.71875 Z M 225.15625 22.605469 C 225.15625 22.605469 225.308594 23.441406 225.671875 24.019531 C 226.039062 24.597656 226.34375 25.113281 227.488281 25.386719 C 228.632812 25.660156 229.609375 25.164062 229.878906 24.6875 C 230.152344 24.214844 230.105469 24.242188 230.105469 24.242188 C 230.105469 24.242188 230.332031 24.070312 230.691406 24.199219 C 231.050781 24.328125 231.140625 24.535156 231.140625 24.535156 C 231.140625 24.535156 231.054688 24.46875 230.933594 24.492188 C 230.8125 24.511719 230.550781 24.664062 230.417969 24.644531 C 230.285156 24.628906 230.273438 24.625 230.273438 24.625 C 230.273438 24.625 230.371094 24.71875 230.53125 24.679688 C 230.695312 24.636719 230.929688 24.476562 231.164062 24.605469 C 231.398438 24.734375 231.558594 24.824219 231.679688 24.769531 C 231.796875 24.714844 231.875 24.570312 232.058594 24.554688 C 232.242188 24.539062 232.402344 24.671875 232.496094 24.660156 C 232.589844 24.644531 232.671875 24.59375 232.671875 24.59375 C 232.671875 24.59375 232.546875 24.773438 232.3125 24.765625 C 232.078125 24.753906 232.097656 24.75 231.988281 24.863281 C 231.875 24.980469 231.742188 25.234375 231.339844 25.191406 C 230.9375 25.148438 230.820312 25.03125 230.539062 25.035156 C 230.257812 25.039062 230.003906 25.171875 229.890625 25.246094 C 229.78125 25.324219 230.242188 25.011719 230.488281 25.113281 C 230.734375 25.214844 230.832031 25.390625 230.933594 25.410156 C 231.03125 25.433594 231.105469 25.386719 231.105469 25.386719 C 231.105469 25.386719 231.015625 25.554688 230.773438 25.546875 C 230.535156 25.542969 230.539062 25.40625 230.25 25.5625 C 229.957031 25.71875 229.570312 25.851562 229.257812 25.769531 C 228.945312 25.691406 228.878906 25.628906 228.792969 25.570312 C 228.703125 25.511719 228.574219 25.492188 228.574219 25.492188 C 228.574219 25.492188 228.738281 25.546875 228.839844 25.660156 C 228.941406 25.769531 229.046875 25.863281 229.152344 25.890625 C 229.261719 25.917969 229.328125 25.910156 229.328125 25.910156 C 229.328125 25.910156 228.777344 26.121094 228.445312 26.015625 C 228.113281 25.910156 227.917969 25.820312 227.796875 25.71875 C 227.675781 25.613281 227.605469 25.5 227.515625 25.453125 C 227.425781 25.40625 227.414062 25.429688 227.414062 25.429688 C 227.414062 25.429688 227.511719 25.453125 227.585938 25.550781 C 227.664062 25.652344 227.753906 25.78125 227.816406 25.816406 C 227.878906 25.855469 227.984375 25.894531 227.984375 25.894531 C 227.984375 25.894531 227.742188 25.9375 227.308594 25.738281 C 226.871094 25.535156 226.871094 25.441406 226.808594 25.375 C 226.75 25.3125 226.714844 25.246094 226.679688 25.1875 C 226.644531 25.128906 226.554688 25.050781 226.554688 25.050781 C 226.554688 25.050781 226.625 25.128906 226.671875 25.246094 C 226.714844 25.367188 226.828125 25.464844 226.828125 25.464844 C 226.828125 25.464844 226.589844 25.410156 226.316406 25.171875 C 226.046875 24.933594 225.972656 24.730469 225.933594 24.617188 C 225.894531 24.503906 225.890625 24.445312 225.875 24.402344 C 225.859375 24.359375 225.816406 24.289062 225.816406 24.289062 C 225.816406 24.289062 225.855469 24.378906 225.867188 24.472656 C 225.878906 24.566406 225.90625 24.683594 225.929688 24.710938 C 225.957031 24.738281 225.742188 24.597656 225.574219 24.292969 C 225.40625 23.988281 225.289062 23.605469 225.238281 23.355469 C 225.1875 23.101562 225.152344 22.625 225.15625 22.605469 Z M 231.082031 24.148438 C 231.082031 24.148438 231.5625 24.460938 232.226562 24.25 C 232.890625 24.042969 233.089844 23.507812 232.984375 23.050781 C 232.875 22.59375 232.464844 22.566406 232.355469 22.566406 C 232.246094 22.5625 232.085938 22.546875 231.933594 22.75 C 231.777344 22.949219 231.847656 23.058594 231.847656 23.058594 C 231.847656 23.058594 231.753906 22.96875 231.789062 22.707031 C 231.828125 22.445312 232.066406 22.257812 232.570312 22.183594 C 233.078125 22.109375 233.324219 22.078125 233.414062 21.960938 C 233.503906 21.84375 233.46875 21.738281 233.46875 21.738281 C 233.46875 21.738281 233.640625 21.800781 233.609375 22.128906 C 233.578125 22.457031 233.371094 22.75 233.242188 22.820312 C 233.113281 22.894531 233.039062 22.902344 233.039062 22.902344 C 233.039062 22.902344 233.265625 22.960938 233.433594 22.703125 C 233.601562 22.441406 233.679688 22.003906 233.988281 21.808594 C 234.300781 21.617188 234.988281 21.570312 235.191406 21.484375 C 235.390625 21.394531 235.539062 21.195312 235.625 21.050781 C 235.707031 20.90625 235.921875 20.65625 236.078125 20.609375 C 236.230469 20.5625 236.386719 20.550781 236.386719 20.550781 C 236.386719 20.550781 235.972656 20.675781 235.875 20.929688 C 235.773438 21.183594 235.589844 21.796875 235.152344 21.957031 C 234.710938 22.117188 234.429688 22.109375 234.296875 22.28125 C 234.164062 22.453125 234.191406 22.480469 234.191406 22.480469 C 234.191406 22.480469 234.316406 22.183594 234.632812 22.152344 C 234.953125 22.121094 235.113281 22.300781 235.113281 22.300781 C 235.113281 22.300781 234.734375 22.15625 234.5625 22.382812 C 234.390625 22.613281 234.324219 23.015625 234.128906 23.21875 C 233.929688 23.425781 233.824219 23.472656 233.628906 23.488281 C 233.433594 23.507812 233.292969 23.570312 233.265625 23.589844 C 233.242188 23.613281 233.476562 23.511719 233.691406 23.535156 C 233.90625 23.558594 234.035156 23.421875 234.035156 23.421875 C 234.035156 23.421875 233.816406 23.792969 233.367188 24.066406 C 232.914062 24.335938 232.3125 24.519531 231.695312 24.4375 C 231.152344 24.367188 231.082031 24.148438 231.082031 24.148438 Z M 228.695312 22.722656 C 228.691406 22.722656 228.765625 22.621094 229.078125 22.546875 C 229.285156 22.496094 229.652344 22.464844 230.046875 22.539062 C 230.519531 22.628906 230.75 22.863281 230.75 22.863281 C 230.75 22.863281 230.707031 22.855469 230.636719 22.863281 C 230.566406 22.875 230.515625 22.925781 230.390625 22.953125 C 230.265625 22.976562 230.1875 22.914062 230.1875 22.914062 C 230.1875 22.914062 230.214844 22.96875 230.339844 22.988281 C 230.464844 23.003906 230.46875 22.925781 230.734375 22.902344 C 231 22.882812 231.023438 22.984375 231.230469 22.976562 C 231.4375 22.96875 231.4375 22.714844 231.53125 22.539062 C 231.621094 22.359375 231.804688 22.429688 231.804688 22.429688 C 231.804688 22.429688 231.785156 22.4375 231.722656 22.464844 C 231.660156 22.496094 231.636719 22.546875 231.628906 22.628906 C 231.617188 22.710938 231.652344 22.917969 231.5625 23.125 C 231.46875 23.332031 231.25 23.515625 231.007812 23.511719 C 230.765625 23.507812 230.636719 23.390625 230.464844 23.261719 C 230.292969 23.132812 230.03125 22.917969 229.535156 22.707031 C 229.042969 22.492188 228.695312 22.722656 228.695312 22.722656 Z M 224.847656 24.53125 C 224.847656 24.53125 224.921875 24.746094 225.117188 24.765625 C 225.3125 24.78125 225.390625 24.675781 225.421875 24.601562 C 225.457031 24.527344 225.457031 24.480469 225.457031 24.480469 C 225.457031 24.480469 225.644531 24.632812 225.679688 24.804688 C 225.714844 24.976562 225.699219 25.089844 225.652344 25.25 C 225.605469 25.410156 225.507812 25.511719 225.507812 25.511719 C 225.507812 25.511719 225.554688 25.363281 225.484375 25.289062 C 225.417969 25.214844 225.328125 25.09375 225.324219 25.039062 C 225.324219 24.980469 225.296875 25.128906 225.386719 25.246094 C 225.472656 25.367188 225.480469 25.539062 225.453125 25.6875 C 225.421875 25.835938 225.152344 26.355469 225.152344 26.355469 C 225.152344 26.355469 225.011719 26.039062 224.953125 25.878906 C 224.894531 25.714844 224.832031 25.605469 224.851562 25.46875 C 224.871094 25.332031 224.929688 25.257812 224.960938 25.175781 C 224.992188 25.097656 224.976562 25.011719 224.976562 25.011719 C 224.976562 25.011719 224.972656 25.109375 224.882812 25.226562 C 224.796875 25.34375 224.8125 25.488281 224.8125 25.488281 C 224.8125 25.488281 224.621094 25.289062 224.597656 25.046875 C 224.574219 24.808594 224.742188 24.613281 224.847656 24.53125 Z M 224.847656 24.53125 " fill-opacity="1" fill-rule="evenodd"/></g><path fill="#000000" d="M 221.945312 23.253906 Z M 221.945312 23.253906 C 221.9375 23.191406 221.78125 22.867188 221.488281 22.777344 C 221.160156 22.671875 220.867188 22.765625 220.6875 22.878906 C 220.511719 22.996094 220.300781 23.3125 220.011719 23.578125 C 219.722656 23.84375 219.292969 24.113281 218.734375 24.246094 C 218.171875 24.378906 217.28125 23.917969 217.339844 23.273438 C 217.398438 22.625 217.859375 22.585938 218.113281 22.636719 C 218.371094 22.691406 218.472656 22.953125 218.398438 23.089844 C 218.320312 23.230469 218.144531 23.175781 218.113281 23.089844 C 218.078125 23.003906 218.125 22.96875 218.125 22.96875 C 218.125 22.96875 218.109375 22.949219 218.03125 22.988281 C 217.949219 23.027344 217.773438 23.28125 218.019531 23.632812 C 218.269531 23.984375 219.105469 23.808594 219.800781 23.316406 C 220.496094 22.824219 220.882812 22.566406 221.382812 22.679688 C 221.871094 22.789062 221.941406 23.230469 221.945312 23.253906 Z M 228.335938 23.253906 C 228.339844 23.234375 228.414062 22.789062 228.898438 22.679688 C 229.398438 22.566406 229.785156 22.828125 230.480469 23.320312 C 231.179688 23.8125 232.015625 23.988281 232.261719 23.632812 C 232.511719 23.28125 232.332031 23.027344 232.253906 22.988281 C 232.171875 22.949219 232.15625 22.96875 232.15625 22.96875 C 232.15625 22.96875 232.203125 23.007812 232.171875 23.089844 C 232.136719 23.175781 231.964844 23.230469 231.886719 23.089844 C 231.808594 22.953125 231.914062 22.691406 232.167969 22.640625 C 232.425781 22.585938 232.882812 22.625 232.941406 23.273438 C 233.003906 23.917969 232.109375 24.378906 231.546875 24.246094 C 230.988281 24.117188 230.558594 23.84375 230.269531 23.582031 C 229.980469 23.316406 229.769531 22.996094 229.59375 22.878906 C 229.417969 22.765625 229.121094 22.671875 228.796875 22.777344 C 228.503906 22.867188 228.347656 23.191406 228.335938 23.253906 Z M 228.335938 23.253906 C 228.335938 23.253906 228.335938 23.257812 228.335938 23.257812 C 228.335938 23.257812 228.335938 23.253906 228.335938 23.253906 Z M 228.335938 23.253906 " fill-opacity="1" fill-rule="evenodd"/><path fill="#000000" d="M 225.15625 23.863281 C 225.15625 23.863281 225.21875 24.132812 225.289062 24.257812 C 225.359375 24.378906 225.421875 24.460938 225.421875 24.460938 C 225.421875 24.460938 225.410156 24.722656 225.171875 24.726562 C 224.9375 24.734375 224.882812 24.5 224.882812 24.5 C 224.882812 24.5 224.976562 24.363281 225.027344 24.238281 C 225.082031 24.109375 225.15625 23.863281 225.15625 23.863281 Z M 225.15625 23.863281 " fill-opacity="1" fill-rule="evenodd"/></svg>